<svg xmlns="http://www.w3.org/2000/svg" version="1.1" viewBox="0 0 500 500"><path style="color-rendering:auto;color:#000000;isolation:auto;mix-blend-mode:normal;shape-rendering:auto;solid-color:#000000;image-rendering:auto" fill="#fff" d="m250 0c-138 0-250 112-250 250-1.513e-8 138 112 250 250 250s250-112 250-250-112-250-250-250zm0 20.04c127.1 0 230 102.8 230 230s-102.8 230-230 230c-127.1 0-230-102.8-230-230 0-127.1 102.8-230 230-230z"/><path style="color-rendering:auto;color:#000000;isolation:auto;mix-blend-mode:normal;shape-rendering:auto;solid-color:#000000;image-rendering:auto" fill="#fff" d="m289.7 232-79.4-79.4-18 18.1 79.3 79.3-79.3 79.3 18 18.1 79.4-79.4 18-18z"/></svg>
