<?xml version="1.0" encoding="utf-8"?><svg xmlns="http://www.w3.org/2000/svg" width="159.1" height="81.8" viewBox="0 0 159.1 81.8"><path d="M0 16.9h159v1.2H0zm0 63.7h159v1.2H0zM.5.2h9.2v1.4H1.9V6h7v1.3h-7V13H.5V.2zm18.8 13a6.5 6.5 0 01-4.8-2c-.5-.5-1-1.2-1.3-2s-.5-1.7-.5-2.5A6.8 6.8 0 0114.6 2a6.4 6.4 0 014.7-2A6.5 6.5 0 0124 2c.6.6 1 1.3 1.3 2a6.9 6.9 0 010 5.1 6.5 6.5 0 01-3.4 3.6c-.8.4-1.7.5-2.6.5zm0-1.3a5 5 0 003.6-1.5 5.3 5.3 0 001.4-3.7c0-.8-.1-1.5-.4-2.1a5 5 0 00-2.6-2.8c-.6-.3-1.3-.5-2-.5A5 5 0 0015.7 3a5.3 5.3 0 00-1.5 3.7c0 .7.2 1.4.4 2a5 5 0 002.7 2.9c.6.3 1.3.4 2 .4zM30 .2h5.4c.8 0 1.5.1 2.2.4.6.2 1 .5 1.5.9l.7 1.1a3.8 3.8 0 010 2.9c-.2.4-.4.8-.7 1-.3.4-.7.6-1.1.8l-1.4.5 4 5.2h-1.9L35 8h-3.6v5h-1.5V.2zm5.3 6.5l1.3-.1a4 4 0 001-.6c.4-.2.6-.5.8-.8s.2-.7.2-1V4c0-.8-.3-1.4-.8-1.9-.6-.4-1.4-.6-2.5-.6h-4v5.1h4zm14.9 6.5a6.5 6.5 0 01-4.7-2c-.6-.5-1-1.2-1.4-2s-.4-1.7-.4-2.5A6.8 6.8 0 0145.5 2a6.4 6.4 0 014.7-2A6.5 6.5 0 0155 2c.6.6 1 1.3 1.4 2a6.9 6.9 0 010 5.1 6.5 6.5 0 01-3.4 3.6c-.8.4-1.7.5-2.7.5zm0-1.3a5 5 0 003.6-1.5 5.3 5.3 0 001.4-3.7c0-.8 0-1.5-.3-2.1a5 5 0 00-2.7-2.8c-.6-.3-1.3-.5-2-.5A5 5 0 0046.6 3a5.3 5.3 0 00-1.4 3.7c0 .7.1 1.4.4 2a5 5 0 002.6 2.9c.6.3 1.3.4 2 .4zM67.5.2h4.7c.8 0 1.4.1 2 .3.6.2 1.1.5 1.5.8.4.4.8.8 1 1.3s.3 1 .3 1.7-.1 1.3-.4 1.8c-.2.5-.6 1-1 1.3-.5.4-1 .7-1.7.8a7 7 0 01-1.9.3h-3V13h-1.4V.2zm4.6 7l1.4-.2c.4-.1.8-.4 1.1-.6s.6-.6.7-.9c.2-.3.3-.7.3-1.1 0-1-.3-1.7-1-2.1-.6-.5-1.4-.7-2.5-.7H69v5.6h3.2zm8.7-7h5.5c.8 0 1.5.1 2 .4.7.2 1.2.5 1.6.9.3.3.6.7.7 1.1a3.8 3.8 0 010 2.9c-.1.4-.4.8-.7 1-.3.4-.7.6-1.1.8l-1.4.5 4 5.2h-1.8l-3.7-5h-3.7v5h-1.4V.2zM86 6.7l1.4-.1c.4-.1.7-.3 1-.6l.7-.8c.2-.3.2-.7.2-1V4c0-.8-.2-1.4-.8-1.9-.6-.4-1.4-.6-2.4-.6h-4v5.1h4zm9-6.5h9.3v1.4h-7.8v4.3h7v1.3h-7v4.5h8V13H95V.2zm13.4 0h1.5l4.6 7 4.7-7h1.4V13h-1.4V2.7l-4.7 6.8-4.7-6.8V13h-1.4V.2zm17.1 0h1.4V13h-1.4V.2zm12.2 13a6.5 6.5 0 01-4.7-2c-.6-.5-1-1.2-1.3-2s-.5-1.7-.5-2.5A6.8 6.8 0 01133 2a6.4 6.4 0 014.7-2 6.5 6.5 0 014.8 2c.5.6 1 1.3 1.3 2a6.9 6.9 0 010 5.1 6.5 6.5 0 01-3.4 3.6c-.8.4-1.7.5-2.7.5zm0-1.3a5 5 0 003.6-1.5 5.3 5.3 0 001.4-3.7c0-.8 0-1.5-.3-2.1a5 5 0 00-2.7-2.8c-.6-.3-1.3-.5-2-.5a5 5 0 00-3.6 1.6 5.3 5.3 0 00-1.4 3.7c0 .7.1 1.4.4 2a5 5 0 002.6 2.9c.6.3 1.3.4 2 .4zm15 1.3a7.6 7.6 0 01-5.2-2l.9-1.1c.6.6 1.3 1 2 1.3.7.3 1.5.5 2.4.5.8 0 1.5-.2 2-.6.6-.4.8-1 .8-1.6l-.1-.8-.5-.7-1-.5-1.7-.4-2-.6c-.5-.2-1-.4-1.3-.7l-.8-1-.2-1.4c0-.6 0-1 .3-1.5a3.7 3.7 0 012.2-1.8c.5-.2 1-.3 1.7-.3 1 0 1.7.2 2.4.4.7.3 1.4.7 2 1.2l-.8 1.1c-.6-.5-1.2-.8-1.8-1-.6-.3-1.2-.4-1.9-.4a3 3 0 00-2 .6c-.4.4-.7 1-.7 1.5 0 .3 0 .6.2.8 0 .3.2.5.5.7l1 .6 1.8.4c1.4.3 2.5.8 3.1 1.3.7.6 1 1.4 1 2.3a3.3 3.3 0 01-1.2 2.7c-.3.3-.8.6-1.3.7l-1.8.3zM9 26.5h3.4L20 44h-4l-1.6-4H7l-1.6 4h-4L9 26.5zm4 10.2l-2.4-5.6-2.3 5.6H13zm8.6-10.1h13.2V30h-9.4v3.7h8.3v3.4h-8.3V44h-3.8V26.7zm15.3 0h13V30h-9.2v3.5h8.1V37h-8.1v3.7H50V44H36.9V26.7zm23.8 17.6a9 9 0 01-6.4-2.5c-.8-.8-1.4-1.8-1.9-2.9s-.6-2.2-.6-3.5a9 9 0 012.5-6.4 9.3 9.3 0 016.5-2.6 11.4 11.4 0 014 .7 8 8 0 012.9 2l-2.5 2.8c-.6-.6-1.3-1.1-2-1.5a5.3 5.3 0 00-4.4 0c-.6.2-1.2.6-1.6 1.1s-.8 1-1 1.7a6 6 0 001 6 4.8 4.8 0 003.6 1.6c1 0 1.8-.2 2.5-.5.7-.4 1.4-.9 2-1.5l2.5 2.4-1.4 1.3A8.3 8.3 0 0163 44c-.7.2-1.5.2-2.3.2zM74 30.1h-5.4v-3.5H83V30h-5.3v14H74V30.2zm11.1-3.5H89v17.3h-4V26.7zm5.7 0h4.3l4.5 12.2 4.5-12.2h4.1l-7 17.5H98l-7-17.5zm26.4 17.6a9.5 9.5 0 01-6.6-2.6 8.6 8.6 0 01-2.6-6.3 8.8 8.8 0 012.7-6.4 9.6 9.6 0 016.6-2.6 9.5 9.5 0 016.6 2.6 8.6 8.6 0 012.6 6.3 8.8 8.8 0 01-5.5 8.3c-1.2.5-2.4.7-3.8.7zm.1-3.5c.8 0 1.5-.1 2.1-.4s1.2-.7 1.7-1.2a5.5 5.5 0 001.4-3.8c0-.8-.1-1.5-.4-2.1a5.2 5.2 0 00-2.7-3 5 5 0 00-2.2-.4 4.8 4.8 0 00-3.8 1.6 5.5 5.5 0 00-1.4 3.8c0 .8.2 1.5.4 2.2a5.2 5.2 0 004.9 3.3zM3 52h13v3.5H6.7V59H15v3.4H6.7V66h9.5v3.4H3V52.1zm16.1 0h13.2v3.5H23v3.7h8.3v3.5H23v6.7h-3.8V52.1zM35 52h13v3.5h-9.3V59h8.2v3.4h-8.2V66h9.4v3.4H35V52.1zm24.2 17.7a9 9 0 01-6.4-2.6c-.8-.8-1.4-1.7-1.8-2.8s-.7-2.3-.7-3.5a9 9 0 012.5-6.4c.8-.8 1.8-1.5 2.9-2a11.4 11.4 0 017.7 0 8 8 0 012.8 2l-2.4 2.8-2-1.4a5.3 5.3 0 00-4.5-.1c-.6.3-1.1.7-1.6 1.2s-.8 1-1 1.7c-.3.6-.4 1.3-.4 2v.1a6 6 0 001.4 3.9 4.8 4.8 0 003.6 1.6c1 0 1.9-.2 2.6-.6l2-1.4 2.4 2.4c-.4.5-.9 1-1.4 1.3a8.3 8.3 0 01-3.4 1.6l-2.3.2zM73 55.6h-5.3V52h14.4v3.5h-5.3v13.8H73V55.6zM84.7 52h3.9v17.4h-3.9V52.1zm6.3 0h4.2l4.5 12.3 4.5-12.2h4.1l-7 17.4H98l-7-17.4zm26.9 17.7a9.5 9.5 0 01-6.6-2.6 8.6 8.6 0 01-2.6-6.3 8.8 8.8 0 012.6-6.4 9.6 9.6 0 016.6-2.6 9.5 9.5 0 016.6 2.6 8.6 8.6 0 012.6 6.3 8.8 8.8 0 01-5.5 8.3c-1.2.5-2.4.7-3.7.7zm0-3.5c.8 0 1.5-.1 2.1-.4s1.2-.7 1.7-1.2a5.5 5.5 0 001.4-3.8c0-.8-.1-1.5-.4-2.2a5.2 5.2 0 00-2.7-2.9 5 5 0 00-2.1-.4 4.8 4.8 0 00-3.8 1.6 5.5 5.5 0 00-1.4 3.8c0 .8 0 1.5.3 2.2a5.2 5.2 0 005 3.3zM159 24.6v-2c0-.8-1-.7-1-.7h-23c-1 0-1 1-1 1v2c0 .7 1.2.6 1.2.6l3.4.5c1.4.3 2.9 1 2.9 3.9l-.2 39.8c0 1.8-.6 3-1.3 3-.8 0-1.8-2.1-2.7-4-.8-2-3.3-2.7-5-2.5-2.3.4-4 2.4-4 4.9 0 1.4.7 6.6 9.9 6.6 9 0 13.4-8.3 13.4-15.5l.1-29.4c0-3.2 0-4.8 1.1-5.9 1-.8 3.6-1.3 5.4-1.3 1 0 .9-1 .9-1m-1-.1c-3.1.2-5.1.7-6 1.7-1 .9-1.4 2.7-1.4 5.5v29.2c0 5.8-1.5 9.2-3.9 12a12 12 0 01-9.5 3.8 9 9 0 01-5.9-1.7c-1.3-1.1-2-2.4-2-3.8s.4-2.5 1.1-3c.8-.7 1.7-1 2.6-1 1.8 0 3.1 1.1 4 3.3.8 2.2 2 3.3 3 3.3s1.5-.7 1.9-1.3c.5-1 .6-2.5.6-4.8v-36c0-3-.5-4.9-1.5-5.7-1-.8-3-1.3-6-1.5V23h23v1.5z"/></svg>