<?xml version="1.0" encoding="utf-8"?><svg xmlns="http://www.w3.org/2000/svg" width="486.9" height="97.3" viewBox="0 0 486.9 97.3"><path fill="#FFF" d="M304.6 74.6h1.6V97h-1.6zM325.9 97h-1.7l-9.6-18.1-.8-2.1h-.2l.3 2.3V97h-1.6V74.6h1.7l9.7 18.1.8 2.1h.1l-.3-2.3V74.6h1.6zm19.3 0h-1.7l-9.6-18.1-.8-2.1h-.1l.3 2.3V97h-1.6V74.6h1.7l9.6 18.1.8 2.1h.1l-.3-2.3V74.6h1.6zm5.8-18.3c0-5.8 13.6-5.8 13.6 0v14.2c0 5.8-13.5 5.8-13.5 0V78.7zm12 14v-14c0-3.8-10.3-3.8-10.3 0v14l.1.9c1 2.8 9 2.8 10 0l.1-.8m13.7 4.5l-5.1-4.6c-1-.8-1.3-1.7-1.3-2.9V74.6h1.7v15.3c0 .8 0 1 .6 1.6l4.5 4 4.4-4c.6-.6.6-.8.6-1.6V74.6h1.6v15.2c0 1.2-.2 2-1.2 3l-5.1 4.5h-.7zm26.2-18.6V97h-1.6v-8.7h-10.4V97h-1.6V78.7c0-1.5.8-2.6 2-3.3 2.4-1.4 7.3-1.4 9.6 0 1.2.7 2 1.8 2 3.3m-12 0v8h10.4v-8c0-.8-.5-1.5-1.2-2a9.8 9.8 0 00-8 0c-.7.5-1.2 1.2-1.2 2m31.5 14.1c0 2.1-1.5 3.4-3.5 4-1.8.5-4.6.5-6.3 0-2.1-.5-3.7-1.9-3.8-4v-14c0-2.4 2-3.7 4.4-4.2a14 14 0 016 .3c1.8.6 3.2 1.9 3.2 3.9h-1.6c0-1.2-1-2-2.1-2.4a12 12 0 00-5.3-.2c-1.6.3-3 1.2-3 2.6v14c0 1.3 1.2 2.1 2.6 2.5 1.5.4 3.9.4 5.4 0 1.4-.4 2.4-1.3 2.4-2.5h1.6zm5.8-18.2h1.6V97h-1.6zm7.7 4.1c0-5.8 13.5-5.8 13.5 0v14.2c0 5.8-13.5 5.8-13.5 0V78.7zm11.8 14.9v-.8l.1-14.1c0-3.8-10.3-3.8-10.3 0v14l.1.9c1 2.8 9.1 2.8 10 0M444.8 71h-2.1l-1 2.2h1.4l1.7-2V71zm23.7 26h-1.7l-9.6-18.1-.8-2.1h-.1l.3 2.3V97H455V74.6h1.7l9.6 18.1.8 2.1h.1l-.3-2.3V74.6h1.6zM29.3 48.7c0 4.6-3.4 7.4-7.7 8.6-3.7 1-9.9 1-13.5.1-4.5-1.2-8-4-8.1-8.6V18.5c0-5 4.3-8 9.3-9a30 30 0 0113 .6c4 1.3 7 4.1 7 8.4h-3.5c0-2.6-2-4.3-4.6-5.2-3.2-1-8-1-11.3-.4-3.5.7-6.5 2.6-6.5 5.6v30.3C3.5 51.5 6 53.3 9 54c3.2.8 8.4.8 11.6 0 3-1 5.2-2.7 5.2-5.3h3.5zm31.6-37.5c2.5 1.6 4.2 4 4.2 7.2h.1v39.4h-3.4V39H39.4v19h-3.5V18.3c0-3.2 1.8-5.6 4.3-7.2 5-3 15.7-3 20.7 0m-18.9 3c-1.6 1-2.6 2.4-2.6 4.2v17h22.4v-17c0-1.8-1.1-3.3-2.7-4.3-4-2.4-13.2-2.3-17 0M55.4 1h-4.8l-2 5h3.1l3.7-4.7V1zm15.8 8.5h29.7v3.1H87.8l-.1 45.2h-3.5l.1-45.2H71.2zm38.9 22.4h22.2v3.5h-22.2c0 2.2-.2 13.2.3 14.6 1.1 3.2 6 4.3 9.2 4.3h12.7v3.5h-12.7c-5.9 0-13-2.7-13-9.3v-39h25.7v3.4h-22.2v19zm29.5 25.9V9.4h16.8c5.5 0 12.5 2.9 12.5 9.4v29.6c0 6.7-7.1 9.4-13 9.4h-16.3zm25.8-39c0-4.2-5.5-5.9-9.1-5.9H143v41.4h12.8c3.2 0 8.1-1.1 9.2-4.4.5-1.4.3-25.3.3-31.1m14.5 20.5v18.5h-3.4V9.5h13c1.7 0 12.8.2 12.8 9.3v11.5a8 8 0 01-6.5 7.6c3.6.9 6.5 3.7 6.5 7.6v12.3h-3.4V45.5c0-4.7-6.2-6.2-9.7-6.2h-9.3zm19-20.5c0-4.5-5.9-6.2-9.4-6.2h-9.6v23.6h9.3c3.8 0 9.7-1.2 9.7-6V18.9zm39.5-.4v39.4H235V39h-22.3v19H209V18.3c0-3.2 1.8-5.6 4.3-7.2 5-3 15.7-3 20.6 0 2.6 1.6 4.3 4 4.3 7.2m-25.7 0v17h22.3v-17c0-1.8-1-3.3-2.6-4.3-4-2.4-13.2-2.3-17 0-1.7 1-2.7 2.5-2.7 4.3m55.5-.4c0-7-13-7.2-17.5-3-3 2.8-3.6 8.8-.8 12 2 2.5 5.7 3.5 9 4.3 8.2 2 14.7 5.6 14.6 15 0 3.9-1.9 7-4.5 9.3-4.4 3.6-12 3.7-17.3 2-4-1.4-7-4.6-7-8.9l3.4.1c.2 3 2.6 5.3 5.2 6 4.5 1.3 9.6 1.3 13.5-1.9 2-1.5 3.2-3.8 3.3-6.6 0-7.4-6.3-10.5-12-12-4.2-1-8.1-2.2-10.5-4.7-4.2-4.6-3.6-13 .7-17 6.2-6 23.3-4.7 23.3 5.4h-3.5z"/><g fill="#FFF"><path d="M395.3 12.6h-9.6v23.6h9.3c3.7 0 9.7-1.2 9.7-6V18.9c0-4.5-5.9-6.2-9.4-6.2zm69.3.3h-13.1v41.4h12.7c3.3 0 8.2-1.1 9.3-4.4.5-1.4.2-25.3.2-31.1 0-4.2-5.5-5.9-9-5.9z"/><path d="M285.3 0v65h201.6V0H285.3zm36.1 12.9h-22.2v19h22.2v3.5h-22.2c0 2.2-.2 13.2.3 14.6 1 3.2 5.9 4.3 9.1 4.3h12.8v3.5h-12.8c-5.8 0-12.9-2.7-12.9-9.3v-39h25.7v3.4zm36.5 45h-3.7l-20.7-39-1.8-4.7h-.2l.6 5v38.6h-3.5V9.5h3.8l20.7 39 1.8 4.6h.2l-.7-5V9.6h3.5v48.3zm50.2-27.6a8 8 0 01-6.5 7.6c3.6.9 6.5 3.7 6.5 7.6v12.3h-3.4V45.5c0-4.7-6.2-6.2-9.7-6.2h-9.3v18.5h-3.4V9.5h13c1.7 0 12.8.2 12.8 9.3v11.5zm32.6-17.4h-22.2v19h22.2v3.5h-22.2c0 2.2-.2 13.2.3 14.6 1 3.2 5.9 4.3 9.1 4.3h12.8v3.5h-12.8c-5.8 0-12.9-2.7-12.9-9.3v-39h25.7v3.4zm36.6 35.5c0 6.7-7.1 9.4-13 9.4h-16.4V9.4h16.8c5.6 0 12.6 2.9 12.6 9.4v29.6z"/></g></svg>